<svg aria-hidden="true" style="position: absolute; width: 0; height: 0; overflow: hidden;" version="1.1" xmlns="http://www.w3.org/2000/svg" xmlns:xlink="http://www.w3.org/1999/xlink">
<defs>
<symbol id="instagram" viewBox="0 0 32 32">
<path fill="#f9b300" style="fill: var(--color1, #f9b300)" d="M19.063 16c0 1.691-1.371 3.063-3.063 3.063s-3.063-1.371-3.063-3.063c0-1.691 1.371-3.063 3.063-3.063s3.063 1.371 3.063 3.063z"></path>
<path fill="#f9b300" style="fill: var(--color1, #f9b300)" d="M23.162 10.582c-0.147-0.399-0.382-0.76-0.687-1.056-0.296-0.305-0.657-0.54-1.056-0.687-0.324-0.126-0.81-0.275-1.706-0.316-0.969-0.044-1.259-0.054-3.713-0.054s-2.744 0.009-3.713 0.053c-0.896 0.041-1.382 0.191-1.706 0.316-0.399 0.147-0.76 0.382-1.056 0.687-0.305 0.296-0.54 0.657-0.687 1.056-0.126 0.324-0.275 0.81-0.316 1.706-0.044 0.969-0.054 1.259-0.054 3.713s0.010 2.744 0.054 3.713c0.041 0.896 0.19 1.382 0.316 1.706 0.147 0.399 0.382 0.76 0.687 1.056 0.296 0.305 0.657 0.54 1.056 0.687 0.324 0.126 0.81 0.276 1.706 0.316 0.969 0.044 1.259 0.053 3.712 0.053s2.744-0.009 3.713-0.053c0.896-0.041 1.382-0.19 1.706-0.316 0.801-0.309 1.435-0.942 1.744-1.744 0.126-0.324 0.275-0.81 0.316-1.706 0.044-0.969 0.053-1.26 0.053-3.713s-0.009-2.744-0.053-3.713c-0.041-0.896-0.19-1.382-0.316-1.706zM16 20.718c-2.606 0-4.718-2.112-4.718-4.718s2.112-4.718 4.718-4.718c2.605 0 4.718 2.112 4.718 4.718s-2.112 4.718-4.718 4.718zM20.904 12.198c-0.609 0-1.103-0.494-1.103-1.103s0.494-1.103 1.103-1.103c0.609 0 1.103 0.494 1.103 1.103s-0.494 1.103-1.103 1.103z"></path>
<path fill="#f9b300" style="fill: var(--color1, #f9b300)" d="M16 0c-8.835 0-16 7.165-16 16s7.165 16 16 16c8.835 0 16-7.165 16-16s-7.165-16-16-16zM25.132 19.788c-0.044 0.978-0.2 1.646-0.427 2.23-0.477 1.234-1.453 2.21-2.687 2.687-0.584 0.227-1.252 0.382-2.23 0.427-0.98 0.045-1.293 0.055-3.788 0.055s-2.808-0.011-3.788-0.055c-0.978-0.045-1.646-0.2-2.23-0.427-0.613-0.231-1.168-0.592-1.627-1.060-0.467-0.459-0.829-1.014-1.060-1.627-0.227-0.584-0.383-1.252-0.427-2.23-0.045-0.98-0.056-1.293-0.056-3.788s0.011-2.808 0.055-3.788c0.044-0.978 0.2-1.646 0.427-2.23 0.231-0.613 0.593-1.168 1.060-1.627 0.459-0.468 1.014-0.829 1.627-1.060 0.584-0.227 1.252-0.382 2.23-0.427 0.98-0.045 1.293-0.055 3.788-0.055s2.808 0.011 3.788 0.056c0.978 0.044 1.646 0.2 2.23 0.426 0.613 0.231 1.168 0.593 1.627 1.060 0.467 0.459 0.829 1.014 1.060 1.627 0.227 0.584 0.383 1.252 0.427 2.23 0.045 0.98 0.055 1.293 0.055 3.788s-0.011 2.808-0.055 3.788z"></path>
</symbol>
<symbol id="arrow-short" viewBox="0 0 37 32">
<path fill="#f9b300" style="fill: var(--color1, #f9b300)" d="M36.081 17.414c0.781-0.781 0.781-2.047 0-2.828l-12.728-12.728c-0.781-0.781-2.047-0.781-2.828 0s-0.781 2.047 0 2.828l11.314 11.314-11.314 11.314c-0.781 0.781-0.781 2.047 0 2.829s2.047 0.781 2.828 0l12.728-12.728zM0 18h34.667v-4h-34.667v4z"></path>
</symbol>
<symbol id="user-ok" viewBox="0 0 38 32">
<path fill="none" stroke="#fff" stroke-width="2.8235" stroke-miterlimit="4" stroke-linecap="round" stroke-linejoin="round" style="stroke: var(--color2, #fff)" d="M24.984 30.118v-3.137c0-1.664-0.649-3.26-1.804-4.437s-2.722-1.838-4.356-1.838h-10.781c-1.634 0-3.201 0.661-4.356 1.838s-1.804 2.773-1.804 4.437v3.137M26.524 14.431l3.080 3.137 6.16-6.275M19.594 8.157c0 3.465-2.758 6.274-6.16 6.274s-6.16-2.809-6.16-6.274 2.758-6.274 6.16-6.274c3.402 0 6.16 2.809 6.16 6.274z"></path>
</symbol>
<symbol id="price" viewBox="0 0 32 32">
<path fill="none" stroke="#fff" stroke-width="2.7429" stroke-miterlimit="4" stroke-linecap="round" stroke-linejoin="round" style="stroke: var(--color2, #fff)" d="M9.22 9.222h0.015M29.312 18.701l-10.6 10.603c-0.275 0.275-0.601 0.493-0.96 0.642s-0.744 0.225-1.132 0.225c-0.388 0-0.773-0.077-1.132-0.225s-0.685-0.367-0.96-0.642l-12.699-12.688v-14.788h14.784l12.699 12.703c0.551 0.554 0.86 1.304 0.86 2.085s-0.309 1.531-0.86 2.085z"></path>
</symbol>
<symbol id="cup" viewBox="0 0 33 32">
<path fill="none" stroke="#fff" stroke-width="2.8235" stroke-miterlimit="4" stroke-linecap="round" stroke-linejoin="round" style="stroke: var(--color2, #fff)" d="M24.112 11.765h1.389c1.474 0 2.888 0.595 3.93 1.654s1.628 2.495 1.628 3.993-0.585 2.934-1.628 3.993c-1.042 1.059-2.456 1.654-3.93 1.654h-1.389M24.112 11.765h-22.23v12.706c0 1.498 0.586 2.934 1.628 3.993s2.456 1.654 3.93 1.654h11.115c1.474 0 2.887-0.595 3.93-1.654s1.628-2.495 1.628-3.993v-12.706zM7.44 1.882v4.235M12.997 1.882v4.235M18.555 1.882v4.235"></path>
</symbol>
<symbol id="arrow-long" viewBox="0 0 54 32">
<path fill="#fff" style="fill: var(--color2, #fff)" d="M53.414 17.414c0.781-0.781 0.781-2.047 0-2.828l-12.728-12.728c-0.781-0.781-2.047-0.781-2.828 0s-0.781 2.047 0 2.828l11.314 11.314-11.314 11.314c-0.781 0.781-0.781 2.047 0 2.828s2.047 0.781 2.828 0l12.728-12.728zM0 18h52v-4h-52v4z"></path>
</symbol>
<symbol id="user" viewBox="0 0 29 32">
<path stroke-width="2.6667" stroke-miterlimit="4" stroke-linecap="round" stroke-linejoin="round" d="M27.556 30.222v-3.161c0-1.676-0.679-3.284-1.888-4.47s-2.848-1.851-4.557-1.851h-12.889c-1.709 0-3.348 0.666-4.557 1.851s-1.888 2.793-1.888 4.47v3.161M21.111 8.099c0 3.491-2.885 6.321-6.444 6.321s-6.444-2.83-6.444-6.321c0-3.491 2.885-6.321 6.444-6.321s6.444 2.83 6.444 6.321z"></path>
</symbol>
<symbol id="basket" viewBox="0 0 34 32">
<path stroke-width="2.7429" stroke-miterlimit="4" stroke-linecap="round" stroke-linejoin="round" d="M1.829 1.829h5.486l3.675 18.072c0.125 0.621 0.469 1.18 0.97 1.577s1.129 0.608 1.773 0.596h13.33c0.644 0.012 1.271-0.199 1.773-0.596s0.845-0.955 0.97-1.577l2.194-11.324h-23.314M14.171 28.822c0 0.745-0.614 1.35-1.371 1.35s-1.371-0.604-1.371-1.35c0-0.745 0.614-1.35 1.371-1.35s1.371 0.604 1.371 1.35zM29.257 28.822c0 0.745-0.614 1.35-1.371 1.35s-1.371-0.604-1.371-1.35c0-0.745 0.614-1.35 1.371-1.35s1.371 0.604 1.371 1.35z"></path>
</symbol>
<symbol id="search" viewBox="0 0 33 32">
<path fill="none" stroke="#c4c4c4" stroke-width="2.7429" stroke-miterlimit="4" stroke-linecap="round" stroke-linejoin="round" style="stroke: var(--color3, #c4c4c4)" d="M31.086 30.171l-7.070-6.85M27.835 14.425c0 6.957-5.822 12.597-13.003 12.597s-13.003-5.64-13.003-12.597c0-6.957 5.822-12.597 13.003-12.597s13.003 5.64 13.003 12.597z"></path>
</symbol>
<symbol id="error" viewBox="0 0 32 32">
<path fill="#f9b300" style="fill: var(--color1, #f9b300)" d="M32 16c0 8.837-7.163 16-16 16s-16-7.163-16-16c0-8.837 7.163-16 16-16s16 7.163 16 16z"></path>
<path fill="none" stroke="#fff" stroke-width="1.28" stroke-miterlimit="4" stroke-linecap="round" stroke-linejoin="miter" style="stroke: var(--color2, #fff)" d="M8.96 10.24l14.080 12.8"></path>
<path fill="none" stroke="#fff" stroke-width="1.28" stroke-miterlimit="4" stroke-linecap="round" stroke-linejoin="miter" style="stroke: var(--color2, #fff)" d="M23.040 10.24l-14.080 12.8"></path>
</symbol>
<symbol id="success" viewBox="0 0 32 32">
<path fill="#f9b300" style="fill: var(--color1, #f9b300)" d="M32 16c0 8.837-7.163 16-16 16s-16-7.163-16-16c0-8.837 7.163-16 16-16s16 7.163 16 16z"></path>
<path fill="none" stroke="#fff" stroke-width="2.56" stroke-miterlimit="4" stroke-linecap="round" stroke-linejoin="round" style="stroke: var(--color2, #fff)" d="M24.32 8.96l-11.44 12.8-5.2-5.818"></path>
</symbol>
<symbol id="ezve" viewBox="0 0 34 32">
<path fill="#505050" style="fill: var(--color4, #505050)" d="M33.478 0.606c-0.799-0.807-2.099-0.807-2.898 0l-4.146 4.189c-0.195 0.197-0.195 0.517-0.001 0.714s0.511 0.198 0.706 0.001l4.146-4.189c0.41-0.414 1.077-0.414 1.488 0 0.198 0.2 0.306 0.467 0.306 0.752s-0.109 0.552-0.306 0.752l-13.978 14.125c-0.41 0.414-1.077 0.414-1.488 0-0.198-0.2-0.306-0.467-0.306-0.752 0-0.179 0.043-0.351 0.123-0.503 0.001-0.002 0.003-0.004 0.004-0.007 0.047-0.088 0.107-0.17 0.179-0.243l7.742-7.824c0.195-0.197 0.195-0.517 0.001-0.715s-0.511-0.198-0.706-0.001l-7.591 7.671c0.174-1.462 0.734-2.771 1.091-3.486 0.133-0.265 0.119-0.589-0.036-0.844-0.138-0.227-0.364-0.362-0.607-0.362h-1.172c-0.276 0-0.499 0.226-0.499 0.505s0.223 0.505 0.499 0.505h0.798c-0.426 0.904-1.006 2.405-1.11 4.047h-13.106c-0.105-1.644-0.684-3.144-1.11-4.047h4.962c0.081 0.379 0.224 0.974 0.434 1.61 0.397 1.2 1.948 1.945 2.124 2.026 0.131 0.061 0.283 0.061 0.414 0 0.175-0.081 1.726-0.826 2.124-2.026 0.21-0.636 0.352-1.231 0.433-1.61h0.78c0.276 0 0.499-0.226 0.499-0.505s-0.223-0.505-0.499-0.505h-1.189c-0.243 0-0.451 0.177-0.492 0.419-0.002 0.009-0.157 0.906-0.479 1.88-0.188 0.565-0.937 1.075-1.385 1.321-0.439-0.243-1.198-0.758-1.384-1.321-0.323-0.975-0.479-1.872-0.48-1.881-0.041-0.242-0.249-0.419-0.492-0.419h-5.688c-0.272 0-0.522 0.143-0.667 0.382-0.151 0.247-0.164 0.563-0.034 0.824 0.313 0.625 1.002 2.171 1.126 3.851h-0.56c-0.476 0-0.864 0.392-0.864 0.874v1.063c0 0.482 0.388 0.874 0.864 0.874h0.349c-0.086 0.631-0.198 1.409-0.32 2.224-0.042 0.276 0.146 0.534 0.418 0.576 0.026 0.004 0.051 0.006 0.076 0.006 0.242 0 0.455-0.179 0.493-0.429 0.132-0.879 0.253-1.717 0.341-2.376h13.515c0.247 1.836 0.7 4.743 1.35 8.656 0.202 1.213-0.117 2.428-0.875 3.335-0.67 0.802-1.583 1.244-2.571 1.244h-9.323c-0.988 0-1.901-0.442-2.571-1.244-0.758-0.907-1.076-2.122-0.874-3.335 0.187-1.129 0.361-2.19 0.516-3.155 0.044-0.275-0.14-0.535-0.412-0.58s-0.529 0.142-0.573 0.417c-0.155 0.963-0.328 2.023-0.515 3.15-0.251 1.506 0.149 3.021 1.097 4.155 0.851 1.018 2.066 1.602 3.333 1.602h9.323c1.268 0 2.482-0.584 3.333-1.602 0.948-1.134 1.347-2.649 1.097-4.155-0.61-3.674-1.046-6.456-1.299-8.291 0.333 0.213 0.714 0.32 1.095 0.32 0.525 0 1.050-0.202 1.449-0.606l13.978-14.126c0.387-0.391 0.599-0.912 0.599-1.467s-0.213-1.077-0.599-1.467zM1.184 16.744v-0.79h14.832c-0.009 0.081-0.015 0.162-0.015 0.245 0 0.187 0.025 0.37 0.071 0.546h-14.889z"></path>
<path fill="#505050" style="fill: var(--color4, #505050)" d="M4.503 28.172c-0.158 0-0.307-0.082-0.443-0.245-0.228-0.273-0.321-0.655-0.256-1.049 0.514-3.097 0.91-5.594 1.176-7.422 0.040-0.276-0.148-0.533-0.421-0.573s-0.526 0.15-0.567 0.426c-0.265 1.821-0.66 4.311-1.173 7.401-0.115 0.688 0.060 1.37 0.478 1.87 0.325 0.388 0.753 0.602 1.205 0.602 0.276 0 0.499-0.226 0.499-0.505s-0.223-0.505-0.499-0.505z"></path>
<path fill="#505050" style="fill: var(--color4, #505050)" d="M18.087 16.688c0.276 0 0.499-0.226 0.499-0.505s-0.224-0.505-0.499-0.505-0.499 0.226-0.499 0.505c0 0.279 0.224 0.505 0.499 0.505z"></path>
</symbol>
</defs>
</svg>
